<svg xmlns="http://www.w3.org/2000/svg" version="1.1" width="3300" height="2000"><g id="Notes"><style>
    text {
      font-family: monospace;
      text-anchor: middle;
    }
    text.emphasis {
      font-weight:bold;
    }
    text.lanchor {
      text-anchor: start;
    }
  </style><rect height="2200" id="artboard" fill="white" width="3300" x="0" y="0"/><line id="" style="fill:none;stroke:black;stroke-width:0.5;" x1="263" x2="3036" y1="292" y2="292"/><text class="lanchor emphasis" transform="matrix(1 0 0 1 263 322)">Weight/Scale Variations</text><text transform="matrix(1 0 0 1 559.711 322)">Ultralight</text><text transform="matrix(1 0 0 1 856.422 322)">Thin</text><text transform="matrix(1 0 0 1 1153.13 322)">Light</text><text transform="matrix(1 0 0 1 1449.84 322)">Regular</text><text transform="matrix(1 0 0 1 1746.56 322)">Medium</text><text transform="matrix(1 0 0 1 2043.27 322)">Semibold</text><text transform="matrix(1 0 0 1 2339.98 322)">Bold</text><text transform="matrix(1 0 0 1 2636.69 322)">Heavy</text><text transform="matrix(1 0 0 1 2933.4 322)">Black</text><text id="template-version" style="text-anchor: end;" transform="matrix(1 0 0 1 3036 1933)">Template v.1.0</text><text class="lanchor" transform="matrix(1 0 0 1 263 726)">Small</text><text class="lanchor" transform="matrix(1 0 0 1 263 1156)">Medium</text><text class="lanchor" transform="matrix(1 0 0 1 263 1586)">Large</text></g><g id="Guides"><g id="H-reference" style="fill:#27AAE1;stroke:none;" transform="matrix(1 0 0 1 339 696)"><path d="M 54.9316 0 L 57.666 0 L 30.5664 -70.459 L 28.0762 -70.459 L 0.976562 0 L 3.66211 0 L 12.9395 -24.4629 L 45.7031 -24.4629 Z M 29.1992 -67.0898 L 29.4434 -67.0898 L 44.8242 -26.709 L 13.8184 -26.709 Z"/></g><line id="Baseline-S" style="fill:none;stroke:#27AAE1;opacity:1;stroke-width:0.577;" x1="263" x2="3036" y1="696" y2="696"/><line id="Capline-S" style="fill:none;stroke:#27AAE1;opacity:1;stroke-width:0.577;" x1="263" x2="3036" y1="625.541" y2="625.541"/><g id="H-reference" style="fill:#27AAE1;stroke:none;" transform="matrix(1 0 0 1 339 1126)"><path d="M 54.9316 0 L 57.666 0 L 30.5664 -70.459 L 28.0762 -70.459 L 0.976562 0 L 3.66211 0 L 12.9395 -24.4629 L 45.7031 -24.4629 Z M 29.1992 -67.0898 L 29.4434 -67.0898 L 44.8242 -26.709 L 13.8184 -26.709 Z"/></g><line id="Baseline-M" style="fill:none;stroke:#27AAE1;opacity:1;stroke-width:0.577;" x1="263" x2="3036" y1="1126" y2="1126"/><line id="Capline-M" style="fill:none;stroke:#27AAE1;opacity:1;stroke-width:0.577;" x1="263" x2="3036" y1="1055.54" y2="1055.54"/><g id="H-reference" style="fill:#27AAE1;stroke:none;" transform="matrix(1 0 0 1 339 1556)"><path d="M 54.9316 0 L 57.666 0 L 30.5664 -70.459 L 28.0762 -70.459 L 0.976562 0 L 3.66211 0 L 12.9395 -24.4629 L 45.7031 -24.4629 Z M 29.1992 -67.0898 L 29.4434 -67.0898 L 44.8242 -26.709 L 13.8184 -26.709 Z"/></g><line id="Baseline-L" style="fill:none;stroke:#27AAE1;opacity:1;stroke-width:0.577;" x1="263" x2="3036" y1="1556" y2="1556"/><line id="Capline-L" style="fill:none;stroke:#27AAE1;opacity:1;stroke-width:0.577;" x1="263" x2="3036" y1="1485.54" y2="1485.54"/><rect height="119.336" id="left-margin" style="fill:darkred;stroke:none;opacity:0.4;" width="12.4512" x="1394.06" y="1030.79"/><rect height="119.336" id="right-margin" style="fill:darkgreen;stroke:none;opacity:0.4;" width="12.4512" x="1502.5112" y="1030.79"/><rect x="1406.5112" y="1045" width="96" height="96" fill="none" stroke="blue" stroke-dasharray="5"/><rect x="1394.06" y="1030.79" width="120.9024" height="119.336" fill="none" stroke="blue"/></g><g id="Symbols"><g id="Bold-L" transform="matrix(1 0 0 1 2266 1556)"><path d="M77.4 17.660000000000014  67.08 7.0175000000000125  102.2325 -27.97374999999998 H24.51 V-42.64749999999998 H102.2325 L67.08 -77.79999999999998 L77.4 -88.11999999999998 L130.45125000000002 -35.391249999999985 L77.4 17.660000000000014 Z"/></g><g id="Semibold-L" transform="matrix(1 0 0 1 1970.27 1556)"><path d="M77.4 18.010557500000015  67.991385 8.279442500000016  104.89651125 -28.534577499999983 H24.22958625 V-41.94638499999999 H104.89651125 L67.991385 -78.85151124999999 L77.4 -88.40041374999998 L130.73166375 -35.321106249999985 L77.4 18.010557500000015 Z"/></g><g id="Medium-L" transform="matrix(1 0 0 1 1674.31 1556)"><path d="M77.4 18.273395000000015  68.67492375 9.225980000000014  106.89472125 -28.95527874999999 H24.01931625 V-41.42054874999998 H106.89472125 L68.67492375 -79.64034625 L77.4 -88.61068374999999 L130.94193375 -35.268538749999976 L77.4 18.273395000000015 Z"/></g><g id="Regular-L" transform="matrix(1 0 0 1 1378.56 1556)"><path d="M77.4 18.466250000000016  69.17625 9.920000000000016  108.36 -29.263749999999987 H23.865000000000002 V-41.03499999999998 H108.36 L69.17625 -80.21874999999999 L77.4 -88.76499999999999 L131.09625 -35.22999999999999 L77.4 18.466250000000016 Z"/></g><g id="Light-L" transform="matrix(1 0 0 1 1082.77 1556)"><path d="M77.4 15.985257500000017  70.85083125 9.113750000000017  110.34482625 -30.44216499999999 H26.3459925 V-39.85658499999998 H110.34482625 L70.85083125 -79.4125 L77.4 -86.2840075 L128.6152575 -35.22999999999999 L77.4 15.985257500000017 Z"/></g><g id="Thin-L" transform="matrix(1 0 0 1 787.282 1556)"><path d="M77.4 13.504748750000015  72.52525125 8.307500000000012  112.32916875000001 -31.620418749999985 H28.826501250000003 V-38.678331249999985 H112.32916875000001 L72.52525125 -78.60624999999999 L77.4 -83.80349874999999 L126.13474875 -35.22999999999999 L77.4 13.504748750000015 Z"/></g><g id="Ultralight-L" transform="matrix(1 0 0 1 491.205 1556)"><path d="M77.4 12.016250000000014  73.53 7.823750000000018  113.52000000000001 -32.327499999999986 H30.315 V-37.97124999999998 H113.52000000000001 L73.53 -78.12249999999999 L77.4 -82.31499999999998 L124.64625000000001 -35.22999999999999 L77.4 12.016250000000014 Z"/></g><g id="Bold-M" transform="matrix(1 0 0 1 2281.8 1126)"><path d="M60.0 7.89500000000001  47.875 -4.22999999999999  70.375 -26.72999999999999 H16.875 V-43.72999999999999 H70.375 L47.875 -66.22999999999999 L60.0 -78.22999999999999 L103.125 -35.22999999999999 L60.0 7.89500000000001 Z"/></g><g id="Semibold-M" transform="matrix(1 0 0 1 1985.97 1126)"><path d="M60.0 7.9493750000000105  49.01625 -3.03437499999999  73.472625 -27.49087499999999 H16.875 V-42.86049999999999 H73.472625 L49.01625 -67.316875 L60.0 -78.22999999999999 L103.125 -35.17562499999999 L60.0 7.9493750000000105 Z"/></g><g id="Medium-M" transform="matrix(1 0 0 1 1689.91 1126)"><path d="M60.0 7.99012500000001  49.87225 -2.1376249999999892  75.796125 -28.061499999999988 H16.875 V-42.20824999999999 H75.796125 L49.87225 -68.13212499999999 L60.0 -78.22999999999999 L103.125 -35.13487499999999 L60.0 7.99012500000001 Z"/></g><g id="Regular-M" transform="matrix(1 0 0 1 1394.06 1126)"><path d="M60.0 8.02000000000001  50.5 -1.4799999999999898  77.5 -28.47999999999999 H16.875 V-41.72999999999999 H77.5 L50.5 -68.72999999999999 L60.0 -78.22999999999999 L103.125 -35.10499999999999 L60.0 8.02000000000001 Z"/></g><g id="Light-M" transform="matrix(1 0 0 1 1098.18 1126)"><path d="M60.0 6.096750000000011  52.279 -1.6723749999999882  80.33675 -29.730124999999987 H18.79825 V-40.47987499999999 H80.33675 L52.279 -68.53762499999999 L60.0 -76.30675 L101.20175 -35.10499999999999 L60.0 6.096750000000011 Z"/></g><g id="Thin-M" transform="matrix(1 0 0 1 802.565 1126)"><path d="M60.0 4.1738750000000095  54.057625 -1.8646249999999895  83.173 -30.97999999999999 H20.721125 V-39.22999999999999 H83.173 L54.057625 -68.34537499999999 L60.0 -74.38387499999999 L99.278875 -35.10499999999999 L60.0 4.1738750000000095 Z"/></g><g id="Ultralight-M" transform="matrix(1 0 0 1 506.415 1126)"><path d="M60.0 3.0200000000000102  55.125 -1.9799999999999898  84.875 -31.72999999999999 H21.875 V-38.47999999999999 H84.875 L55.125 -68.22999999999999 L60.0 -73.22999999999999 L98.125 -35.10499999999999 L60.0 3.0200000000000102 Z"/></g><g id="Bold-S" transform="matrix(1 0 0 1 2294.23 696)"><path d="M47.34 -4.360374999999987  38.365125 -13.433874999999986  53.849250000000005 -28.917999999999985 H16.470375 V-41.54199999999999 H53.849250000000005 L38.365125 -57.02612499999999 L47.34 -66.00099999999999 L78.209625 -35.22999999999999 L47.34 -4.360374999999987 Z"/></g><g id="Semibold-S" transform="matrix(1 0 0 1 1998.1 696)"><path d="M47.34 -4.317473124999985  39.26557125 -12.490526874999986  56.293276125 -29.518330374999984 H16.470375 V-40.855964499999985 H56.293276125 L39.26557125 -57.883669375 L47.34 -66.00099999999999 L78.209625 -35.18709812499999 L47.34 -4.317473124999985 Z"/></g><g id="Medium-S" transform="matrix(1 0 0 1 1701.85 696)"><path d="M47.34 -4.285321374999988  39.94095525 -11.782991124999988  58.126517625000005 -29.968553499999985 H16.470375 V-40.34133924999999 H58.126517625000005 L39.94095525 -58.526901624999994 L47.34 -66.00099999999999 L78.209625 -35.15494637499999 L47.34 -4.285321374999988 Z"/></g><g id="Regular-S" transform="matrix(1 0 0 1 1405.73 696)"><path d="M47.34 -4.261749999999989  40.43625 -11.264124999999986  59.470875 -30.29874999999999 H16.470375 V-39.96399999999999 H59.470875 L40.43625 -58.99862499999999 L47.34 -66.00099999999999 L78.209625 -35.13137499999999 L47.34 -4.261749999999989 Z"/></g><g id="Light-S" transform="matrix(1 0 0 1 1109.75 696)"><path d="M47.34 -5.7791942499999855  41.839881000000005 -11.415908874999985  61.70907075 -31.28509862499999 H17.98781925 V-38.97765137499999 H61.70907075 L41.839881000000005 -58.846841125 L47.34 -64.48355575 L76.69218075 -35.13137499999999 L47.34 -5.7791942499999855 Z"/></g><g id="Thin-S" transform="matrix(1 0 0 1 814.015 696)"><path d="M47.34 -7.296342624999987  43.243216125000004 -11.567594124999989  63.946872000000006 -32.27124999999999 H19.504967625000003 V-37.99149999999999 H63.946872000000006 L43.243216125000004 -58.69515587499998 L47.34 -62.96640737499999 L75.175032375 -35.13137499999999 L47.34 -7.296342624999987 Z"/></g><g id="Ultralight-S" transform="matrix(1 0 0 1 517.792 696)"><path d="M47.34 -8.206749999999989  44.085375 -11.658624999999986  65.28975 -32.862999999999985 H20.415375 V-37.39974999999999 H65.28975 L44.085375 -58.604124999999996 L47.34 -62.05599999999998 L74.26462500000001 -35.13137499999999 L47.34 -8.206749999999989 Z"/></g></g></svg>